# xmcd
#
# Track frame offsets: 
#        150
#        20978
#        42425
#        60858
#        77026
#        97402
#        117625
#        144391
#        166265
#        188763
#        212654
#        228402
#        253216
#        274097
#        296651
#
# Disc length: 4148 seconds
#
# Revision: 0
# Processed by: cddbd v1.5.2PL0 Copyright (c) Steve Scherf et al.
# Submitted via: ExactAudioCopy v0.99pb3
#
DISCID=e310320f
DTITLE=Noel Cabangon - Himig Nating Pag-Ibig
DYEAR=2006
DGENRE=Folk
TTITLE0=Ang Himig Natin
TTITLE1=Ang Himig Ng Pag-Ibig
TTITLE2=Ang Payo
TTITLE3=Ang Tangi Kong Pag-Ibig
TTITLE4=Sa Pagpatak Ng Ulan
TTITLE5=Nag-Iisa, Wala Ka Na
TTITLE6=Diwa (Hanap Hanap Kita)
TTITLE7=Kanlungan
TTITLE8=Walang Iba Kundi Ikaw
TTITLE9=Nang Ikaw Ay Dumating
TTITLE10=Awit Kay Gabriel
TTITLE11=Alaala Ka, Infanta
TTITLE12=Awit Ng Bahaghari
TTITLE13=Uunahin Ko Kayo
TTITLE14=Nariyan Ka Lang Sa Tabi
EXTD=
EXTT0=
EXTT1=
EXTT2=
EXTT3=
EXTT4=
EXTT5=
EXTT6=
EXTT7=
EXTT8=
EXTT9=
EXTT10=
EXTT11=
EXTT12=
EXTT13=
EXTT14=
PLAYORDER=
